<svg height="512pt" viewBox="-27 0 512 512" width="512pt" 
    xmlns="http://www.w3.org/2000/svg">
    <path d="m314.980469 43.691406v144.253906h-87.390625v-144.253906c0-24.128906 19.566406-43.691406 43.691406-43.691406 12.0625 0 22.996094 4.894531 30.90625 12.796875 7.898438 7.910156 12.792969 18.832031 12.792969 30.894531zm0 0" fill="#ff756e"/>
    <path d="m227.589844 154.226562h87.390625v33.71875h-87.390625zm0 0" fill="#fc4830"/>
    <path d="m314.976562 43.691406v144.257813h-27.980468v-144.257813c0-12.070312-4.882813-22.984375-12.789063-30.890625-4.695312-4.695312-10.464843-8.332031-16.90625-10.507812 4.390625-1.484375 9.085938-2.28906275 13.980469-2.28906275 12.066406 0 22.992188 4.89062475 30.898438 12.79687475s12.796874 18.824219 12.796874 30.890625zm0 0" fill="#fc4830"/>
    <path d="m327.023438 509.054688c-1.84375 1.863281-4.347657 2.945312-6.972657 2.945312h-25.355469c-8.1875 0-12.753906-9.570312-7.5-15.863281 9.457032-11.355469 17.628907-23.5 24.683594-36.039063 4.296875-7.632812-1.257812-17.070312-10.011718-17.070312-2.175782 0-4.246094.609375-6.015626 1.710937-1.78125 1.101563-3.257812 2.679688-4.234374 4.617188-10.777344 21.324219-24.550782 41.84375-42.144532 59.707031-1.835937 1.867188-4.339844 2.9375-6.957031 2.9375h-170.875c-8.25 0-12.710937-9.613281-7.425781-15.949219 72.90625-87.492187 68.941406-221.980469 68.941406-221.980469h274.570312s4.378907 148.570313-80.703124 234.984376zm0 0" fill="#fab03c"/>
    <path d="m327.023438 509.046875c-1.839844 1.875-4.347657 2.949219-6.972657 2.949219h-25.347656c-1.222656 0-2.363281-.207032-3.398437-.59375 1.359374-.503906 2.605468-1.296875 3.640624-2.355469 85.082032-86.410156 80.710938-234.976563 80.710938-234.976563h32.082031s4.371094 148.566407-80.714843 234.976563zm0 0" fill="#fd8f3e"/>
    <path d="m237.757812 456.339844c-11.0625 21.179687-24.292968 39.886718-39.332031 55.660156h-15.039062c-1.132813-2.78125-.597657-6.089844 1.648437-8.363281 14.945313-15.195313 28.082032-33.515625 39.03125-54.457031 1.980469-3.78125 6.644532-5.242188 10.425782-3.265626 3.78125 1.976563 5.246093 6.644532 3.265624 10.425782zm0 0" fill="#fd8f3e"/>
    <path d="m243.304688 433.507812c-.960938 0-1.933594-.183593-2.878907-.5625-3.957031-1.589843-5.878906-6.089843-4.289062-10.046874 29.257812-72.824219 27.410156-147.847657 27.386719-148.597657-.125-4.265625 3.230468-7.824219 7.496093-7.953125 4.273438-.097656 7.824219 3.230469 7.949219 7.496094.097656 3.191406 1.953125 79.027344-28.492188 154.8125-1.210937 3.015625-4.109374 4.851562-7.171874 4.851562zm0 0" fill="#fd8f3e"/>
    <path d="m337.800781 403.5625c-.730469 0-1.476562-.101562-2.214843-.324219-4.085938-1.222656-6.410157-5.527343-5.1875-9.617187 18.59375-62.21875 17.207031-118.761719 17.191406-119.324219-.121094-4.265625 3.234375-7.824219 7.5-7.945313.074218-.003906.152344-.003906.226562-.003906 4.164063 0 7.597656 3.308594 7.71875 7.496094.070313 2.398438 1.507813 59.492188-17.832031 124.203125-1 3.351563-4.074219 5.515625-7.402344 5.515625zm0 0" fill="#fd8f3e"/>
    <path d="m297.429688 403.5625c-.734376 0-1.480469-.101562-2.214844-.324219-4.089844-1.222656-6.414063-5.527343-5.191406-9.617187 9.734374-32.570313 13.894531-63.355469 15.667968-83.445313.375-4.253906 4.136719-7.414062 8.375-7.019531 4.25.375 7.390625 4.125 7.015625 8.375-1.835937 20.804688-6.148437 52.699219-16.253906 86.515625-1 3.351563-4.074219 5.515625-7.398437 5.515625zm0 0" fill="#fd8f3e"/>
    <path d="m194.210938 453.195312c-1.132813 0-2.285157-.25-3.371094-.78125-3.839844-1.867187-5.4375-6.492187-3.570313-10.328124 38.050781-78.222657 35.90625-166.898438 35.882813-167.785157-.128906-4.269531 3.226562-7.828125 7.492187-7.953125 4.273438-.101562 7.828125 3.230469 7.953125 7.496094.109375 3.773438 2.265625 93.394531-37.429687 175-1.339844 2.75-4.089844 4.351562-6.957031 4.351562zm0 0" fill="#fd8f3e"/>
    <path d="m194.328125 332.40625c-7.101563 52.933594-26.179687 126.671875-76.636719 179.59375h-15.050781c-1.132813-2.78125-.597656-6.089844 1.648437-8.363281 27.183594-27.621094 62.222657-80.097657 74.71875-173.277344.566407-4.234375 4.441407-7.191406 8.683594-6.632813 4.222656.5625 7.199219 4.449219 6.636719 8.679688zm0 0" fill="#fd8f3e"/>
    <g fill="#fab03c">
        <path d="m33.75 464.710938c-1.984375 0-3.96875-.757813-5.476562-2.277344l-7.800782-7.847656c-3.011718-3.023438-2.996094-7.917969.03125-10.925782 3.023438-3.007812 7.917969-2.996094 10.925782.03125l7.800781 7.84375c3.007812 3.027344 2.996093 7.917969-.03125 10.929688-1.507813 1.5-3.476563 2.246094-5.449219 2.246094zm0 0"/>
        <path d="m18.40625 486.734375c-.671875 0-1.355469-.089844-2.035156-.273437l-10.671875-2.902344c-4.117188-1.121094-6.546875-5.367188-5.425781-9.484375 1.121093-4.117188 5.371093-6.539063 9.484374-5.429688l10.667969 2.902344c4.121094 1.121094 6.546875 5.367187 5.429688 9.484375-.9375 3.441406-4.050781 5.703125-7.449219 5.703125zm0 0"/>
        <path d="m55.855469 449.492188c-3.417969 0-6.542969-2.285157-7.460938-5.746094l-2.84375-10.6875c-1.09375-4.121094 1.359375-8.355469 5.484375-9.449219 4.121094-1.101563 8.355469 1.355469 9.453125 5.480469l2.839844 10.6875c1.097656 4.125-1.359375 8.355468-5.484375 9.453125-.664062.175781-1.332031.261719-1.988281.261719zm0 0"/>
        <path d="m449.570312 505.027344c-4.234374 0-7.6875-3.414063-7.726562-7.65625-.039062-4.265625 3.386719-7.757813 7.65625-7.796875l.109375-.003907h.070313c4.234374 0 7.6875 3.414063 7.726562 7.65625.039062 4.265626-3.390625 7.757813-7.65625 7.796876l-.109375.003906c-.023437 0-.046875 0-.070313 0zm0 0"/>
        <path d="m410.75 476.289062h-.109375c-4.269531 0-7.726563-3.460937-7.726563-7.726562s3.457032-7.726562 7.726563-7.726562h.109375c4.265625 0 7.722656 3.460937 7.722656 7.726562s-3.457031 7.726562-7.722656 7.726562zm0 0"/>
        <path d="m392.917969 495.625c-4.234375 0-7.6875-3.410156-7.726563-7.652344-.039062-4.269531 3.386719-7.757812 7.65625-7.800781h.109375.070313c4.234375 0 7.6875 3.414063 7.726562 7.65625.039063 4.265625-3.390625 7.757813-7.65625 7.796875h-.109375c-.023437 0-.046875 0-.070312 0zm0 0"/>
        <path d="m419.378906 415.40625c-4.234375 0-7.683594-3.410156-7.722656-7.652344-.039062-4.269531 3.386719-7.761718 7.652344-7.800781h.109375.074219c4.234374 0 7.683593 3.410156 7.722656 7.65625.039062 4.265625-3.386719 7.757813-7.652344 7.796875h-.109375c-.023437 0-.046875 0-.074219 0zm0 0"/>
    </g>
    <path d="m410.113281 278.195312h-277.65625c-5.777343 0-10.457031-4.683593-10.457031-10.457031v-77.609375c0-10.726562 8.695312-19.421875 19.417969-19.421875h259.734375c10.722656 0 19.417968 8.695313 19.417968 19.421875v77.609375c0 5.773438-4.679687 10.457031-10.457031 10.457031zm0 0" fill="#ff756e"/>
    <path d="m355.609375 278.191406h-168.648437v-32.882812c0-5.773438 4.679687-10.457032 10.457031-10.457032h147.734375c5.777344 0 10.457031 4.683594 10.457031 10.457032zm0 0" fill="#6d6d6d"/>
    <path d="m420.570312 190.125v77.609375c0 5.773437-4.683593 10.457031-10.457031 10.457031h-25.976562v-88.066406c0-10.726562-8.699219-19.417969-19.417969-19.417969h36.433594c10.722656 0 19.417968 8.695313 19.417968 19.417969zm0 0" fill="#fc4830"/>
</svg>